<svg preserveAspectRatio="none" overflow="visible" style="display: block;" width="22" height="22" viewBox="0 0 22 22" fill="none" xmlns="http://www.w3.org/2000/svg">
<g id="activity" clip-path="url(#clip0_0_16)">
<path id="Vector" d="M20.1674 11H17.8939C17.4932 10.9991 17.1033 11.1295 16.7838 11.3713C16.4643 11.613 16.2328 11.9527 16.1246 12.3384L13.9702 20.0024C13.9564 20.05 13.9274 20.0918 13.8877 20.1216C13.8481 20.1513 13.7998 20.1674 13.7502 20.1674C13.7006 20.1674 13.6524 20.1513 13.6127 20.1216C13.573 20.0918 13.5441 20.05 13.5302 20.0024L8.4698 1.99761C8.45591 1.95001 8.42696 1.90819 8.38729 1.87844C8.34762 1.84868 8.29937 1.8326 8.24978 1.8326C8.20019 1.8326 8.15194 1.84868 8.11227 1.87844C8.0726 1.90819 8.04365 1.95001 8.02976 1.99761L5.87542 9.66156C5.76767 10.0458 5.5375 10.3844 5.21983 10.626C4.90216 10.8675 4.51436 10.9989 4.11528 11H1.8326" stroke="#111111" stroke-width="2" stroke-linecap="round"/>
</g>
<defs>
<clipPath id="clip0_0_16">
<rect width="22" height="22" fill="white"/>
</clipPath>
</defs>
</svg>
